<svg height="900" viewBox="0 0 1440 900" width="1440" xmlns="http://www.w3.org/2000/svg"><g fill="none" fill-rule="evenodd"><path d="m538 419h364v62h-364z" fill="#000"/><g fill="#fff" transform="translate(546 425)"><path d="m38.9466108 35.9388239c0-4.1075083-1.3184587-7.3586611-3.944115-9.7553323-2.6256564-2.3947972-6.6645503-4.1618503-12.1007288-5.3058438-4.1637017-.8675987-7.1787961-1.892602-9.049975-3.0806313-1.8758711-1.1842816-2.8086453-2.7105432-2.8086453-4.5844065 0-1.6424412.7873215-2.8998034 2.3619646-3.7664652 1.5802735-.86385097 3.5321553-1.29671339 5.8640911-1.29671339 5.7561745 0 9.615833 2.89324489 11.5817909 8.69004099l7.2688829-4.2433634c-3.0620146-8.39678139-9.277069-12.596109-18.6432864-12.596109-5.1696716 0-9.3418189 1.21894806-12.51362684 3.66621351-3.17462314 2.43976999-4.76991115 5.69092279-4.76991115 9.75439529 0 4.0100674 1.38883898 7.2434185 4.15244085 9.6841255 2.76454028 2.4378961 6.50032944 4.1374901 11.20924424 5.0997189 4.2519118.8657248 7.3336329 1.8785479 9.2526705 3.0440909 1.9190376 1.1617952 2.8771489 2.8426506 2.8771489 5.030386 0 1.9619348-.8314266 3.5594033-2.4980334 4.7914684-1.6703604 1.2320651-3.874673 1.8485661-6.6138764 1.8485661-6.8578616 0-10.99904163-3.8995095-12.41227912-11.7041501l-8.16036738 4.1084453c.96374164 4.7493065 3.17743835 8.5457535 6.65328941 11.3930887 3.47022059 2.8576415 8.13690729 4.2836515 13.98879899 4.2836515 2.9287612 0 5.5412799-.4131869 7.8516323-1.2451822v-8.2393768h9.2536088v.0693329 8.4539342h9.2526705v-8.5232671h-9.2198263c.7816911-1.7164588 1.1664371-3.577205 1.1664371-5.5766171"/><path d="m78.7974259 1v29.5480501c0 3.7818509-.9643724 6.7184019-2.8977803 8.790931-1.93061 2.0725292-4.5765715 3.1116021-7.9378847 3.1116021-3.3585152 0-5.9914195-1.0390729-7.898713-3.1116021-1.9091587-2.0725291-2.8604738-5.0090801-2.8604738-8.790931v-12.5138075h9.1895169v-8.51384494h-9.1895169v-8.52039766h-9.2025741v8.52039766h9.1951129v8.51384494h-9.1951129v13.4686312c0 6.1155524 1.8522664 10.8906072 5.5521358 14.3326531 3.7063981 3.4411099 8.5058758 5.1644731 14.4096251 5.1644731 5.9084126 0 10.7256109-1.7233632 14.4469315-5.1644731 3.7278493-3.4420459 5.5913076-8.2171007 5.5913076-14.3326531v-30.5028738z"/><path d="m155.287286 41.4554461v-23.4364907h9.271271v-8.50526854h-9.271271v-8.51368686h-9.287286v8.51368686h9.260909v8.50526854h-9.260909v31.9810446h34v-8.5445539z"/><path d="m128.018198 1v34.9931853c-.276868-.682803-.982648-1.9604863-2.129541-3.8302441l-20.498592-31.1629412h-9.390065v31.9860462h8.963031v8.5060415h-8.963031v8.5079123h8.971478v-8.5079123h9.253038v-8.5060415h-9.253038v-18.1793957c.281561.6837383.987341 1.9576803 2.133295 3.8283735l20.495776 31.364976h9.399451v-49z"/><path d="m196.008681 32.9875921v-31.9875921h-9.008681v31.9875921h8.984009v8.5052686h-8.984009v8.5071393h9.008681v-8.5071393h8.991319v-8.5052686z"/><path d="m293.745175 1v19.7507779h-21.477203v-19.7507779h-9.267972v31.9860462h9.240738v8.5060415h-9.240738v8.5079123h9.267972v-8.5079123h.004696v.0018707h9.261398v-8.5079122h-9.266094v-3.6908776h21.477203v20.7048314h9.254825v-49z"/><path d="m229.105873 23.8228616v7.5995921h15.713836c-.499 3.2399691-1.848906 5.8849758-4.049718 7.9434524-2.192433 2.0528549-5.288838 3.0797509-9.279905 3.0797509-4.353214 0-7.9691-1.575948-10.847658-4.726907-2.880419-3.1462743-4.318768-7.2079475-4.318768-12.1850198 0-2.8061619.444073-5.3199956 1.336873-7.5386905h-3.173676v-8.5168651h9.184016v1.1496362 7.3672289h9.184946v-8.5168651h-7.125642c1.955036-.89197531 4.103714-1.33046737 6.443241-1.33046737 3.173675 0 6.016856.76361332 8.531405 2.29271387 2.521997 1.5309744 4.520789 3.7299934 6.016857 6.6073633l6.874279-5.0698303c-1.863801-3.64660489-4.680915-6.56051583-8.470892-8.72580463-3.789046-2.16997354-8.059404-3.25214947-12.818521-3.25214947-7.079092 0-13.064296 2.42107584-17.959334 7.25479497-4.895038 4.83934083-7.347212 10.93231923-7.347212 18.27893523 0 7.3934634 2.318114 13.4883157 6.940378 18.2742504 4.625057 4.7953042 10.360761 7.1920194 17.202457 7.1920194 6.716945 0 11.680875-2.5569334 14.90203-7.6689264l1.905695 6.7123016h6.04944v-26.2205136z"/><path d="m349 9.54553265v-8.54553265h-39v8.54553265h14.944342v31.94541805h9.165256v8.5090493h9.201526v-8.5090493h-9.190366v-31.94541805z"/></g></g></svg>