<svg height="900" viewBox="0 0 1440 900" width="1440" xmlns="http://www.w3.org/2000/svg"><g fill="#fff" transform="translate(468 385)"><path d="m120.743932 10.2163208-55.2842283 55.5061062-25.9493538-26.053499c-4.3364617-4.3618414-10.2218956-6.8142698-16.3601975-6.8172057-12.7854761 0-23.1501524 10.4062739-23.1501524 23.2430633v58.8672354h32.7203951v-32.8137363l32.7393086 32.8517153 81.8199013-82.1482777v82.1482777h32.720395v-80.1543875c-.010435-19.2403553-15.54287-34.83512885-34.706315-34.8456125-9.210408-.00585811-18.044149 3.6702794-24.549753 10.2163208z"/><path d="m235.747485 5 7.195975 23.8444444c1.040178 3.3040902 1.82708 6.6812196 2.354003 10.1026144h1.033464c.523348-3.4203928 1.303805-6.7973161 2.334865-10.1026144l7.195975-23.8444444h19.138233v48.3333333h-12.612095v-24.9248366c0-2.9.306211-8.8705882.669838-11.9980392l-1.243985-.2084967c-.543652 3.0867921-1.252769 6.1427466-2.124344 9.1549019l-8.152887 27.9764706h-11.48294l-8.038058-27.9764706c-.932563-2.9962506-1.642572-6.0560492-2.124344-9.1549019l-1.320538.2084967c.44018 3.279085.727253 9.306536.727253 11.9980392v24.9248366h-12.631233v-48.3333333z"/><path d="m281.666667 7.72736048c.263767-3.41873903 3.169876-6.06069381 6.666666-6.06069381 3.496791 0 6.402899 2.64195478 6.666667 6.06069381-.263768 3.41873902-3.169876 6.06069382-6.666667 6.06069382-3.49679 0-6.402899-2.6419548-6.666666-6.06069382zm13.009523 9.80472392v35.8012489h-12.647619v-35.8012489z"/><path d="m317.509363 53.3333333c-11.235955 0-19.17603-6.7826375-19.17603-19.2809807 0-12.4983433 8.46442-19.0523526 19.250937-19.0523526 9.756554 0 17.003745 5.0488734 18.726591 14.2511597h-12.640449c-.304538-3.0066803-2.778314-5.3021415-5.749064-5.3346587h-.280899c-4.382022 0-6.460674 3.8104705-6.460674 10.0786945s2.078652 10.3644798 6.460674 10.3644798h.280899c3.745319 0 5.617978-3.5627899 6.029963-6.7064281h12.715356c-1.423221 9.9072233-9.17603 15.6800861-19.157304 15.6800861z"/><path d="m362.882257 5c15.263014 0 25.451076 9.4771242 25.451076 23.9202614 0 14.8980393-10.092668 24.4130719-25.527391 24.4130719h-21.139275v-48.3333333zm12.07686 23.9202614c0-9.1549019-4.02562-13.893464-13.030799-13.893464h-7.307168v28.2797385h7.326247c8.68084 0 13.01172-5.1555555 13.01172-14.3862745z"/><path d="m414.218978 28.9268461c-4.846715 0-7.902676 2.1066253-7.902676 7.5914424v16.8150448h-12.982969v-36.3440303h12.53528v1.1576949c-.016537 1.9995102-.426206 3.9773754-1.206813 5.8264321l1.343066.284679c2.10219-6.2439613 5.683698-7.5914423 11.678832-7.5914423h2.316302v12.8674948c-1.905488-.3642954-3.839679-.5674885-5.781022-.6073154z"/><path d="m460 34.0523526c0 12.4983432-8.90179 19.2809807-20.048379 19.2809807-11.14659 0-19.951621-6.7826375-19.951621-19.2809807 0-12.4983433 8.824383-19.0523526 19.951621-19.0523526 11.127237 0 20.048379 6.5540093 20.048379 19.0523526zm-13.217223 0c0-5.7157058-1.935172-10.154904-6.598936-10.154904h-.406386c-4.683115 0-6.618287 4.5344599-6.618287 10.154904 0 5.620444 1.935172 10.2882703 6.618287 10.2882703h.367683c4.721819.0762094 6.637639-4.4391981 6.637639-10.2120609z"/><path d="m503.333333 33.9794179c0 10.864039-5.604288 19.2546541-14.832683 19.2546541-4.602998.2705682-8.908558-2.3244243-10.891001-6.5640866l-1.214262.3615004c.73966 1.8068636 1.102276 3.7506546 1.064814 5.7079014v13.9272795h-12.460201v-50.7812963h12.460201v.285395c-.015506 1.7291483-.351419 3.4397686-.990091 5.0419796l1.214263.4376058c1.97289-4.2212433 6.23003-6.8347328 10.816277-6.640192 9.097628 0 14.832683 8.10522 14.832683 18.9692591zm-19.708414-10.0649329c-4.65156 0-6.59438 4.2999524-6.59438 10.1410382s1.868096 10.2742226 6.59438 10.2742226h.280214c4.520793 0 6.59438-4.4331368 6.59438-10.2742226s-1.998863-10.1410382-6.59438-10.1410382z"/><path d="m247.905397 105.522876h-17.554032l-3.369149 9.477124h-13.648883l18.051748-48.3333333h15.122885l18.492034 48.3333333h-13.725454zm-2.565148-8.5862747-4.115721-12.7183006c-.692566-2.2869295-1.229768-4.6171917-1.608003-6.9751634h-1.340003c-.378235 2.3579717-.915437 4.6882339-1.608003 6.9751634l-3.675435 12.7183006z"/><path d="m281.628242 121.451379h.230548c4.034582 0 7.070125-1.649734 7.204611-6.036527.061023-2.645228.434938-5.274729 1.114313-7.836236l-1.325649-.356192c-2.179885 4.203288-6.707896 6.743835-11.527377 6.467707-8.395773 0-14.735831-6.467707-14.735831-17.4721823 0-11.0044751 5.590778-17.8846154 14.774255-17.8846154 6.263209 0 10.009607 3.2994679 11.335255 6.7676585l1.268011-.3749396c-.710409-1.4369575-1.115588-2.9992905-1.191162-4.5930091v-.9373489h12.891451v34.5694248c0 11.641872-7.512008 16.234881-20.038425 16.234881-12.89145 0-18.405379-6.111514-19.961575-13.647799h13.775216c.101599 1.486623.817737 2.869197 1.984181 3.830651 1.166443.961454 2.68311 1.419296 4.202178 1.268527zm1.037464-16.384857c4.111431 0 6.551393-3.168239 6.551393-8.8485733 0-5.6803338-2.286263-8.9048137-6.474544-8.9048137h-.384246c-4.111431 0-6.551393 3.149492-6.551393 8.8298258 0 5.6803342 2.439962 8.9235612 6.551393 8.9235612z"/><path d="m344.227426 97.9488457v1.9099817h-26.364075v.3055976c-.038014 2.028903.766965 3.984467 2.227077 5.410312 1.460111 1.425846 3.447608 2.197224 5.498659 2.134115 2.922362.115575 5.57558-1.677579 6.528248-4.412057h12.882665c-1.33269 8.212921-10.004829 13.369872-19.855142 13.369872-12.438436 0-20.144858-7.830925-20.144858-19.0998176 0-12.0710846 8.324481-19.2335161 19.777885-19.2335161s19.449541 7.639927 19.449541 19.6155124zm-12.14872-4.8322538c-.289715-3.8199634-2.588122-6.895034-6.89522-6.895034h-.366972c-1.863936-.0309635-3.661547.6836545-4.985178 1.9817961-1.323631 1.2981417-2.061127 3.0698114-2.045242 4.9132379z"/><path d="m362.679303 79.1925624v.6537613c-.041801 1.7124396-.458462 3.3952403-1.22097 4.9312277l1.296107.3548989c1.728142-3.9412464 6.19877-6.799117 12.322404-6.799117 6.687159 0 11.589823 3.9412464 11.589823 12.3280693v24.2825604h-12.453894v-21.9290199c.093894-1.4872699-.480946-2.9392561-1.569236-3.9637313-1.088291-1.0244753-2.577743-1.5157349-4.06601-1.3410743h-.206625c-1.53896-.0890126-3.045288.465663-4.154781 1.5299159s-1.721152 2.5412038-1.687091 4.073752v21.6861946h-12.52903v-35.8074376z"/><path d="m410.842697 116.666667c-11.235955 0-19.17603-6.796149-19.17603-19.3193894s8.539326-19.0139443 19.250936-19.0139443c9.756554 0 17.022472 5.058931 18.726592 14.2795485h-12.64045c-.304538-3.0126697-2.778314-5.3127036-5.749063-5.3452855h-.280899c-4.382023 0-6.460674 3.8180611-6.460674 10.0987716 0 6.2807101 2.078651 10.4042161 6.460674 10.4042161h.280899c3.745318 0 5.617977-3.588977 6.029962-6.738877h12.715356c-1.423221 9.850597-9.194757 15.63496-19.157303 15.63496z"/><path d="m470 78.3333333v35.1623017c0 11.835116-7.571222 16.504365-20.144858 16.504365-12.573635 0-18.309995-5.850855-19.855142-13.664699h13.771125c.141518 1.465126.869416 2.814046 2.022357 3.747776 1.15294.933731 2.63569 1.375144 4.119603 1.226403h.231773c5.794302 0 7.184934-2.706259 7.184934-8.48088-.11887-2.040115.210557-4.081479.965717-5.984262l-1.332689-.438338c-1.776919 4.078446-6.084017 7.013402-12.380493 7.013402-6.798648 0-11.588604-4.173736-11.588604-12.654617v-22.4314517h12.824722v20.1063569c-.167363 1.4526881.334328 2.9028678 1.366974 3.9513518s2.487389 1.584744 3.963784 1.461165h.289715c1.519572-.004572 2.972978-.61402 4.030996-1.690293 1.058019-1.076274 1.631117-2.528294 1.589478-4.0271544v-19.8014263z"/></g></svg>