<svg height="900" viewBox="0 0 1440 900" width="1440" xmlns="http://www.w3.org/2000/svg"><g fill="#fff" fill-rule="evenodd" transform="translate(553 409)"><path d="m17.7145239 45.5302901c1.7716191-7.7188756 6.4951957-11.8744626 13.5805607-11.8744626 7.0864764 0 11.8100531 4.155587 13.5811165 11.8744626zm44.2854761 4.7490027c0-17.2174399-12.9892801-30.2792928-30.7049154-30.2792928-18.3046931 0-31.2950846 13.0618529-31.2950846 31.4678008 0 1.5556211.126703 3.0564825.30731034 4.5321992h61.16142626c.1478201-.5626833.5312634-2.3501948.5312634-5.7207072z"/><path d="m29.1827237 82c21.57208 0 27.8172763-17.8362064 27.8172763-17.8362064h-17.0301677s-3.4071021 4.8649748-10.7871086 4.8649748c-4.6717423 0-8.4277291-1.9528062-10.7042952-5.0287684h-17.4784285c4.11181712 10.9156729 14.6146889 18 28.1827237 18"/><path d="m131.378941 20c-11.599017 0-16.819094 7.9414144-16.819094 7.9414144h-.580251s-4.640917-7.9414144-16.2399344-7.9414144c-8.6999454 0-13.9205677 6.2403692-13.9205677 6.2403692h-.5791594l-1.1610481-5.1058052h-15.0788864v57.865436h17.399345v-32.9039591c0-6.2403692 3.479869-9.6435274 8.7010371-9.6435274 5.2184388 0 8.6993999 3.4031582 8.6993999 9.6435274v32.9039591h17.399345v-32.9039591c0-6.2403692 3.595591-9.6435274 8.701037-9.6435274 5.21953 0 8.699399 3.4031582 8.699399 9.6435274v32.9039591h17.400437v-35.1746889c0-14.1812497-9.85881-23.8253111-22.621059-23.8253111"/><path d="m195.338714 20.7892606c-3.554449 0-6.426302.6635737-8.693179 1.5352955v16.1714176c1.878788-.994002 4.032266-1.5380129 6.35419-1.5380129 7.604329 0 13.453178 5.7743417 13.453178 14.4366695 0 8.6617843-5.848849 14.4366694-13.453178 14.4366694-7.603779 0-13.452628-5.7748851-13.452628-14.4366694 0-.3576016.024221-.701073.045139-1.0483487v-23.7826793h-.045139v-26.5636023h-17.547097v80.8451317h15.208108l1.169219-5.7748852h.584059s4.678529 6.9297535 16.377328 6.9297535c15.793268 0 28.661286-12.7040952 28.661286-30.6053697 0-17.901818-12.868018-30.6053697-28.661286-30.6053697"/><path d="m228 79h18v-79h-18z"/><path d="m285.184058 69.0287684c-4.671698 0-8.428718-1.9528062-10.704728-5.0287684h-17.47933c4.112846 10.9156729 14.616152 18 28.184058 18 21.571874 0 27.815942-17.8367151 27.815942-17.8367151h-17.03054s-3.406001 4.8654835-10.785402 4.8654835"/><path d="m271.715238 45.5302901c1.770524-7.7188756 6.494699-11.8744626 13.580683-11.8744626 7.085428 0 11.809047 4.155587 13.581238 11.8744626zm44.284762 4.7490027c0-17.2174399-12.990508-30.2792928-30.704079-30.2792928-18.304302 0-31.295921 13.0618529-31.295921 31.4678008 0 1.5556211.125593 3.0564825.306757 4.5321992h61.163086c.147266-.5626833.530157-2.3501948.530157-5.7207072z"/><path d="m315.83545 12.2146221h-2.83545v-2.2146221h8v2.2146221h-2.837163v7.7853779h-2.327387z"/><path d="m323 10h3.101838l1.772479 6.2143978h.251863l1.772479-6.2143978h3.101341v10h-2.025335v-6.1426329h-.253354l-1.771485 6.1426329h-1.899155l-1.771982-6.1426329h-.253354v6.1426329h-2.025335z"/></g></svg>