<svg height="1280" viewBox="0 0 1920 1280" width="1920" xmlns="http://www.w3.org/2000/svg"><g fill="#fff" fill-rule="evenodd" transform="translate(686 591)"><path d="m511.358512 28c-21.474589 0-32.211884 7.3925016-37.178283 21.2203764h-.2677l.2677-19.8508152h-17.180229v67.6304388h17.180229v-30.3934497c0-16.4276233 14.630104-24.2311355 30.736743-24.2311355 19.86281 0 25.902799 8.0765711 25.902799 20.1238741v34.5007111h17.180229v-39.1555125c0-16.565575-9.529854-29.8444875-36.641488-29.8444875"/><path d="m405.358512 28c-21.474589 0-32.211884 7.3925016-37.178283 21.2203764h-.2677l.2677-19.8508152h-17.180229v67.6304388h17.180229v-30.3934497c0-16.4276233 14.630104-24.2311355 30.736743-24.2311355 19.86281 0 25.902799 8.0765711 25.902799 20.1238741v34.5007111h17.180229v-39.1555125c0-16.565575-9.529854-29.8444875-36.641488-29.8444875"/><path d="m316 19h19v-16h-19z"/><path d="m316 97h17v-68h-17z"/><path d="m284.988925 69.0724121c0 7.9136968-14.69452 16.6466872-35.691228 16.6466872-16.744629 0-22.748619-5.0490037-22.748619-9.5522841 0-6.4126033 6.20831-7.5040499 16.175845-7.5040499h42.264002zm-30.243598-41.0724121c-27.376206 0-41.619288 9.1426373-41.619288 22.2414142 0 .0907177 0 .2608132.005522.483355h16.224164c.331331-5.5862223 8.945932-10.307792 25.752686-10.307792 15.950816 0 29.880514 5.4586505 29.880514 16.5106107v1.365017h-46.251016c-16.478185 0-27.737909 5.4586506-27.737909 18.5574275 0 10.6423133 11.054023 21.1499676 34.974725 21.1499676 22.061108 0 36.755629-6.6861737 39.679623-17.4659809h.132532c-.132532 4.6393569-.398977 11.5976835-.797955 16.2370404h17.011075v-38.2048842c0-18.8309979-19.345576-30.5661753-47.254673-30.5661753z"/><path d="m160.358512 27.1602879c-21.340739 0-32.211884 7.4824664-37.178283 21.4786228h-.269095c.135245-5.543474.269095-10.3931142.269095-14.5503598v-34.0885509h-17.180229v97h17.180229v-30.7633301c0-16.6275432 14.630104-24.5260221 30.735349-24.5260221 19.998054 0 25.904193 8.0366699 25.904193 20.3687764v34.9205758h17.180229v-39.6320249c0-17.0435557-9.663704-30.2076872-36.641488-30.2076872"/><path d="m45.5808662 84.2551858c-18.8411235-.1552437-29.9246252-5.3630937-30.1402683-22.2544671h-.0608224c-.0027647-.1681806-.0110586-.329174-.0110586-.4987921 0-7.9734872 3.28441-13.1065903 8.0506752-16.3695822.0013823-.0014374.0027646-.0014374.004147-.0028749h.0013823c.080175-.0546227.1617323-.1063706.2419073-.1595559 7.0180766-4.7996167 15.2097492-6.1982472 21.853215-6.3434287v-.0301863c.1216449 0 .240525-.0043123.3635522-.0043123 16.6487521 0 28.1414227 6.1766855 28.8159985 11.8517039h16.2658474c.0013823-.133682.0013823-.2400527.0013823-.3047375 0-13.2776458-18.0559614-24.1288906-45.4467804-24.1389527-.0069116 0-.0138232 0-.0207349 0-.0055293 0-.0096763 0-.0152056 0-.0248819 0-.0497638.0014374-.0746456.0014374-22.3218241.0215617-45.4094576 6.7617242-45.4094576 35.5004892 0 .1681806.00829396.3306115.00967629.4987921h.06082241c.20181981 24.7484278 15.2429251 35.9992813 45.5103675 35.9992813 31.9414409 0 44.2538317-11.3054763 45.4191338-26.1643075h-15.7032401c-1.8702891 9.546048-15.0853397 12.5402383-29.7158937 12.4194933"/></g></svg>