<svg height="900" viewBox="0 0 1440 900" width="1440" xmlns="http://www.w3.org/2000/svg" xmlns:xlink="http://www.w3.org/1999/xlink"><defs><linearGradient id="a" x1="4.50159%" x2="96.785227%" y1="0%" y2="96.785227%"><stop offset="0" stop-color="#fff"/><stop offset=".981315559" stop-color="#fff" stop-opacity="0"/></linearGradient><rect id="b" height="121.035" rx="28.904" width="121.035"/><filter id="c" height="103.3%" width="102.5%" x="-1.7%" y="-.8%"><feOffset dx="0" dy="2" in="SourceAlpha" result="shadowOffsetOuter1"/><feComposite in="shadowOffsetOuter1" in2="SourceAlpha" operator="out" result="shadowOffsetOuter1"/><feColorMatrix in="shadowOffsetOuter1" result="shadowMatrixOuter1" type="matrix" values="0 0 0 0 1   0 0 0 0 1   0 0 0 0 1  0 0 0 0.5 0"/><feOffset dx="-1" dy="0" in="SourceAlpha" result="shadowOffsetOuter2"/><feComposite in="shadowOffsetOuter2" in2="SourceAlpha" operator="out" result="shadowOffsetOuter2"/><feColorMatrix in="shadowOffsetOuter2" result="shadowMatrixOuter2" type="matrix" values="0 0 0 0 1   0 0 0 0 1   0 0 0 0 1  0 0 0 0.5 0"/><feMerge><feMergeNode in="shadowMatrixOuter1"/><feMergeNode in="shadowMatrixOuter2"/></feMerge></filter></defs><g fill="none" transform="translate(532 389)"><use fill="#000" filter="url(#c)" xlink:href="#b"/><use fill="url(#a)" fill-opacity=".5" xlink:href="#b"/><path d="m41.821 96.099c8.809 7.139 23.575 3.516 32.981-8.09 9.405-11.6069 9.889-26.803 1.079-33.9416-8.809-7.1386-23.575-3.5165-32.98 8.0902-9.4059 11.6067-9.8893 26.8024-1.08 33.9414z" fill="#00c1fe" fill-opacity=".3"/><path d="m33.0074 77.8498c3.3693 10.3672 16.8276 15.2852 30.0606 10.9842s21.229-16.1914 17.86-26.5584c-3.369-10.3671-16.828-15.2848-30.061-10.9841-13.2329 4.3007-21.2289 16.1913-17.8596 26.5583z" fill="#00d0fe" fill-opacity=".3"/><path d="m81.848 16.8645c-.077-.0678-.164-.1236-.258-.1656l-.05-.0276h-.06l-.133-.0368c-.054-.0045-.108-.0045-.161 0h-4.646c-.252 0-.494.1003-.672.2788-.179.1786-.28.4207-.28.6732v33.1689c-4.117-3.7859-9.514-5.8741-15.108-5.8455-11.916 0-21.5786 9.1247-21.5786 20.374 0 11.2494 9.6586 20.3791 21.5786 20.3791 11.829 0 21.515-8.9917 21.6581154-20.1262v-47.9825c.0018846-.1277-.0221154-.2547-.0711154-.3726-.049-.118-.122-.2245-.215-.3126" fill="#00f1fe"/><g fill="#fff"><path d="m158.711 80.485v-34.5118h-11.793v-5.9542h31.043v5.9542h-11.851v34.5118z"/><path d="m187.086 81.178c-2.466 0-4.489-.385-6.069-1.156-1.581-.809-2.756-1.8691-3.527-3.1794s-1.156-2.7555-1.156-4.3356c0-2.6591 1.041-4.8173 3.122-6.4745 2.081-1.6571 5.202-2.4857 9.365-2.4857h7.283v-.6937c0-1.9655-.558-3.4107-1.676-4.3356s-2.505-1.3874-4.162-1.3874c-1.503 0-2.814.3661-3.931 1.0984-1.118.6937-1.811 1.7342-2.081 3.1216h-7.226c.192-2.0811.886-3.8924 2.081-5.434 1.233-1.5415 2.813-2.7169 4.74-3.5262 1.927-.8479 4.085-1.2718 6.475-1.2718 4.085 0 7.303 1.0213 9.654 3.0638 2.35 2.0425 3.526 4.9329 3.526 8.6712v17.6319h-6.301l-.694-4.6251c-.848 1.5415-2.042 2.8133-3.584 3.8151-1.503 1.002-3.449 1.503-5.839 1.503zm1.677-5.7806c2.119 0 3.757-.6937 4.913-2.0811 1.195-1.3874 1.947-3.1023 2.255-5.1449h-6.301c-1.966 0-3.372.3661-4.22 1.0984-.848.6937-1.272 1.5608-1.272 2.6013 0 1.1177.424 1.9848 1.272 2.6014s1.965.9249 3.353.9249z"/><path d="m209.409 93.202v-41.3902h6.59l.809 4.1043c.925-1.2717 2.139-2.3894 3.642-3.3528 1.542-.9635 3.526-1.4452 5.954-1.4452 2.698 0 5.107.6551 7.226 1.9654 2.12 1.3104 3.796 3.1024 5.03 5.3762 1.233 2.2738 1.849 4.8559 1.849 7.7463 0 2.8903-.616 5.4724-1.849 7.7462-1.234 2.2353-2.91 4.008-5.03 5.3188-2.119 1.271-4.528 1.907-7.226 1.907-2.158 0-4.046-.404-5.665-1.214-1.618-.809-2.929-1.946-3.931-3.4104v16.6484zm15.435-18.4983c2.35 0 4.297-.79 5.838-2.3701 1.542-1.5801 2.312-3.6226 2.312-6.1276 0-2.5051-.77-4.5669-2.312-6.1855-1.541-1.6186-3.488-2.4279-5.838-2.4279-2.39 0-4.355.8093-5.897 2.4279-1.503 1.5801-2.254 3.6226-2.254 6.1276 0 2.5051.751 4.5669 2.254 6.1855 1.542 1.5801 3.507 2.3701 5.897 2.3701z"/><path d="m257.814 81.178c-2.544 0-4.779-.404-6.706-1.214-1.927-.848-3.468-2.0038-4.624-3.4682-1.157-1.4645-1.85-3.1602-2.082-5.0871h7.458c.231 1.1176.848 2.0811 1.85 2.8904 1.04.7707 2.37 1.1561 3.988 1.1561 1.619 0 2.794-.3276 3.527-.9827.77-.6552 1.156-1.4067 1.156-2.2545 0-1.2333-.54-2.0618-1.619-2.4858-1.079-.4624-2.582-.9056-4.509-1.3295-1.233-.2698-2.486-.5974-3.757-.9828-1.272-.3854-2.448-.8671-3.527-1.4452-1.04-.6166-1.888-1.3874-2.543-2.3123-.655-.9635-.983-2.1389-.983-3.5263 0-2.5435 1.002-4.6824 3.006-6.4167 2.043-1.7342 4.894-2.6013 8.556-2.6013 3.391 0 6.089.79 8.093 2.3701 2.042 1.5801 3.256 3.7575 3.642 6.5323h-6.995c-.424-2.1196-2.023-3.1794-4.798-3.1794-1.388 0-2.467.2697-3.237.8093-.733.5395-1.099 1.2139-1.099 2.0233 0 .8478.559 1.5222 1.677 2.0232 1.117.501 2.601.9635 4.451 1.3874 2.004.4625 3.834.9828 5.492 1.5608 1.695.5396 3.044 1.3682 4.046 2.4858 1.002 1.0791 1.503 2.6399 1.503 4.6824.039 1.7728-.424 3.3722-1.387 4.7981-.964 1.4259-2.351 2.5436-4.162 3.3526-1.812.81-3.951 1.214-6.417 1.214z"/><path d="m288.937 81.178c-2.775 0-5.28-.636-7.515-1.907-2.197-1.2722-3.95-3.0257-5.26-5.261-1.272-2.2738-1.908-4.8944-1.908-7.8619 0-2.9674.655-5.5688 1.965-7.804 1.311-2.2738 3.064-4.0466 5.261-5.3184 2.235-1.2717 4.74-1.9076 7.515-1.9076 2.736 0 5.203.6359 7.399 1.9076 2.236 1.2718 3.989 3.0446 5.261 5.3184 1.31 2.2352 1.965 4.8366 1.965 7.804 0 2.9675-.655 5.5881-1.965 7.8619-1.272 2.2353-3.025 3.9888-5.261 5.261-2.235 1.271-4.721 1.907-7.457 1.907zm0-6.4165c1.927 0 3.604-.7129 5.029-2.1389 1.426-1.4644 2.139-3.6226 2.139-6.4745 0-2.8518-.713-4.9907-2.139-6.4166-1.425-1.4645-3.083-2.1967-4.971-2.1967-1.965 0-3.661.7322-5.087 2.1967-1.388 1.4259-2.081 3.5648-2.081 6.4166 0 2.8519.693 5.0101 2.081 6.4745 1.426 1.426 3.102 2.1389 5.029 2.1389z"/><path d="m322.26 81.178c-2.697 0-5.106-.655-7.226-1.965-2.119-1.3106-3.796-3.1026-5.029-5.3764s-1.85-4.8559-1.85-7.7463.617-5.4532 1.85-7.6884c1.233-2.2738 2.91-4.0466 5.029-5.3184 2.12-1.3103 4.529-1.9654 7.226-1.9654 2.158 0 4.047.4046 5.665 1.2139 1.619.8094 2.929 1.9462 3.931 3.4107v-16.8799h7.4v41.6222h-6.59l-.81-4.1048c-.925 1.2717-2.158 2.3893-3.699 3.3528-1.503.963-3.469 1.445-5.897 1.445zm1.561-6.4743c2.39 0 4.336-.79 5.839-2.3701 1.541-1.6186 2.312-3.6804 2.312-6.1855 0-2.505-.771-4.5475-2.312-6.1276-1.503-1.6186-3.449-2.4279-5.839-2.4279-2.351 0-4.297.79-5.838 2.3701-1.542 1.5801-2.313 3.6226-2.313 6.1276s.771 4.5669 2.313 6.1855c1.541 1.6186 3.487 2.4279 5.838 2.4279z"/><path d="m349.219 93.202 6.648-14.6251h-1.735l-11.157-26.7651h8.036l8.035 20.1749 8.382-20.1749h7.862l-18.209 41.3902z"/></g></g></svg>